<svg width="47" height="47" viewBox="0 0 47 47" fill="none" xmlns="http://www.w3.org/2000/svg">
<path d="M18.4384 32.5385C25.8263 32.5385 31.8154 26.5494 31.8154 19.1615C31.8154 11.7737 25.8263 5.78462 18.4384 5.78462C11.0506 5.78462 5.06152 11.7737 5.06152 19.1615C5.06152 26.5494 11.0506 32.5385 18.4384 32.5385Z" fill="black"/>
<path d="M20.88 10.8937L20.9366 10.8521H20.865H17.1686V10.8462L17.1537 10.8568L10.1327 15.9096L10.123 15.9166V15.9281V24.3368V24.3475L10.1315 24.3544L14.8191 28.1869L14.8352 28.2L14.8512 28.1869L23.0493 21.4371L23.0577 21.4301V21.4196V18.4451V18.4342L23.0489 18.4272L21.211 16.9781L21.1949 16.9653L21.1792 16.9785L19.1555 18.6755L19.1341 18.6934L19.156 18.7107L20.1384 19.4855V20.6844L14.732 25.1068L12.836 23.5255L12.8771 16.7785L20.88 10.8937ZM20.39 28.1926V28.1984L20.4047 28.1879L27.4671 23.1732L27.4769 23.1663V23.1547V14.6888V14.678L27.4682 14.671L22.7806 10.9148L22.7648 10.902L22.7489 10.9149L14.5301 17.5694L14.5215 17.5763V17.587V20.5996V20.6103L14.5301 20.6172L16.306 22.0664L16.3219 22.0794L16.3379 22.0664L18.3822 20.4076L18.4035 20.3903L18.3826 20.3725L17.4202 19.5596V18.3985L22.868 13.9948L24.7227 15.5003V22.209L16.7198 28.1511L16.664 28.1926H16.7349H20.39Z" fill="url(#paint0_radial_7_117)" stroke="black" stroke-width="0.04"/>
<defs>
<radialGradient id="paint0_radial_7_117" cx="0" cy="0" r="1" gradientUnits="userSpaceOnUse" gradientTransform="translate(18.8 19.5223) rotate(90) scale(8.64701 8.65243)">
<stop offset="0.342927" stop-color="#FF0000"/>
<stop offset="1" stop-color="#FF530E"/>
</radialGradient>
</defs>
</svg>
