<svg width="179" height="163" viewBox="0 0 179 163" fill="none" xmlns="http://www.w3.org/2000/svg">
<path d="M70.2231 112.846C98.3599 112.846 121.169 92.0756 121.169 66.4538C121.169 40.8321 98.3599 20.0615 70.2231 20.0615C42.0863 20.0615 19.2769 40.8321 19.2769 66.4538C19.2769 92.0756 42.0863 112.846 70.2231 112.846Z" fill="black"/>
<path d="M79.5217 37.7802L79.7372 37.636H79.4648H65.3868V37.6154L65.3303 37.6524L38.5907 55.176L38.5538 55.2001V55.24V84.402V84.4391L38.5862 84.4632L56.439 97.7545L56.5001 97.8L56.561 97.7545L87.7835 74.3457L87.8157 74.3215V74.2848V63.9691V63.9312L87.7821 63.9071L80.7825 58.8813L80.7209 58.837L80.6612 58.8829L72.954 64.7683L72.8724 64.8303L72.9559 64.8903L76.6975 67.5774V71.7351L56.1072 87.0726L48.8861 81.5885L49.0428 58.1893L79.5217 37.7802ZM77.6556 97.7742V97.7944L77.7115 97.7581L104.609 80.3668L104.646 80.3426V80.3023V50.9419V50.9045L104.613 50.8804L86.7602 37.8534L86.7 37.8092L86.6394 37.8536L55.3383 60.932L55.3056 60.9562V60.9932V71.4411V71.4781L55.338 71.5023L62.1017 76.528L62.1624 76.5732L62.223 76.528L70.009 70.7752L70.0902 70.7152L70.0104 70.6536L66.3453 67.8344V63.8076L87.0932 48.535L94.1567 53.7563V77.0227L63.6778 97.6304L63.4651 97.7742H63.7351H77.6556Z" fill="url(#paint0_radial_7_117)" stroke="black" stroke-width="0.04"/>
<defs>
<radialGradient id="paint0_radial_7_117" cx="0" cy="0" r="1" gradientUnits="userSpaceOnUse" gradientTransform="translate(71.6 67.7051) rotate(90) scale(29.9886 32.9529)">
<stop offset="0.342927" stop-color="#FF0000"/>
<stop offset="1" stop-color="#FF530E"/>
</radialGradient>
</defs>
</svg>
