<svg width="47" height="47" viewBox="0 0 27 27" fill="none" xmlns="http://www.w3.org/2000/svg">
<circle cx="13" cy="13" r="10" fill="black"/>
<path d="M14.7634 6.01581L14.8096 5.98H14.7512H11.7329V5.97489L11.7208 5.98407L5.98791 10.3345L5.98 10.3405V10.3504V17.5902V17.5994L5.98694 17.6054L9.81452 20.9051L9.82762 20.9164L9.84069 20.9051L16.5347 15.0936L16.5416 15.0876V15.0785V12.5175V12.5081L16.5344 12.5021L15.0337 11.2544L15.0205 11.2434L15.0077 11.2548L13.3553 12.7159L13.3378 12.7313L13.3557 12.7462L14.1579 13.4133V14.4455L9.7434 18.2532L8.1952 16.8917L8.22881 11.0826L14.7634 6.01581ZM14.3633 20.91V20.915L14.3753 20.906L20.142 16.5884L20.15 16.5824V16.5724V9.28335V9.27407L20.1429 9.26808L16.3153 6.03397L16.3024 6.02301L16.2894 6.03404L9.57853 11.7635L9.57152 11.7695V11.7787V14.3725V14.3817L9.57847 14.3877L11.0286 15.6354L11.0416 15.6466L11.0546 15.6354L12.7239 14.2072L12.7413 14.1923L12.7242 14.177L11.9384 13.4771V12.4774L16.3867 8.68582L17.9011 9.98206V15.7582L11.3665 20.8743L11.3209 20.91H11.3788H14.3633Z" fill="url(#paint0_radial_52_17)" stroke="black" stroke-width="0.04"/>
<defs>
<radialGradient id="paint0_radial_52_17" cx="0" cy="0" r="1" gradientUnits="userSpaceOnUse" gradientTransform="translate(13.065 13.445) rotate(90) scale(7.445 7.065)">
<stop offset="0.342927" stop-color="#FF0000"/>
<stop offset="1" stop-color="#FF530E"/>
</radialGradient>
</defs>
</svg>
