<svg width="93" height="34" viewBox="0 0 93 34" fill="none" xmlns="http://www.w3.org/2000/svg">
<path d="M13.7634 9.57069L13.8096 9.53489H13.7512H10.7329V9.52979L10.7208 9.53895L4.98789 13.8894L4.97998 13.8954V13.9054V21.1452V21.1543L4.98692 21.1603L8.8145 24.4601L8.8276 24.4714L8.84067 24.46L15.5347 18.6485L15.5416 18.6425V18.6334V16.0724V16.063L15.5344 16.057L14.0337 14.8093L14.0205 14.7984L14.0077 14.8097L12.3553 16.2708L12.3378 16.2863L12.3557 16.3012L13.1579 16.9683V18.0004L8.74338 21.8081L7.19518 20.4467L7.22879 14.6376L13.7634 9.57069ZM13.3633 24.4649V24.4699L13.3753 24.4609L19.142 20.1433L19.15 20.1373V20.1273V12.8383V12.829L19.1429 12.823L15.3153 9.58887L15.3024 9.5779L15.2894 9.58893L8.57851 15.3184L8.5715 15.3244V15.3336V17.9275V17.9367L8.57845 17.9426L10.0286 19.1903L10.0416 19.2015L10.0546 19.1903L11.7239 17.7621L11.7413 17.7472L11.7242 17.732L10.9384 17.032V16.0324L15.3867 12.2407L16.9011 13.537V19.3132L10.3665 24.4292L10.3209 24.4649H10.3788H13.3633Z" fill="url(#paint0_radial_55_7)" stroke="black" stroke-width="0.04"/>
<path d="M71.6725 6.00342C71.6725 6.00342 70.9885 6.17173 70.6842 6.83912C70.5231 7.15842 70.4626 7.53035 70.4396 7.85412L69.9227 7.92909L69.7705 8.26278L70.4151 8.28367C70.4136 8.38944 70.4311 8.4535 70.4311 8.4535L70.6513 8.51707C70.6513 8.51707 70.7073 8.46245 70.8004 8.39492L71.3118 8.70778L71.464 8.37408L71.1462 8.04633C71.3709 7.79258 71.6426 7.46982 71.7852 7.15698C72.0709 6.49604 71.6725 6.00342 71.6725 6.00342ZM71.5124 6.90123C71.4744 6.98465 71.3448 7.02984 71.2162 7.00451C71.1061 6.97272 71.043 6.87191 71.0721 6.77409C71.1101 6.69066 71.2397 6.64548 71.3683 6.67081C71.4784 6.70259 71.5415 6.8034 71.5124 6.90123Z" fill="#FF530E"/>
<path d="M49 17.5437C49 17.5437 52.6181 7.74564 56.3023 10.034C59.9866 12.3224 58.7144 16.4258 61.4404 18.4775C65.7718 21.7374 70.4445 8.66626 70.4445 8.66626" stroke="#FF4900" stroke-width="0.283404"/>
<path d="M22.0949 17.0001C21.9327 17.0001 21.7937 16.9509 21.6778 16.8524C21.5677 16.7481 21.5127 16.6206 21.5127 16.47V11.4472C21.5127 11.2966 21.5677 11.172 21.6778 11.0735C21.7879 10.9692 21.9269 10.9171 22.0949 10.9171H24.0241C24.5397 10.9171 24.9945 11.0156 25.3884 11.2126C25.7882 11.4095 26.0952 11.6876 26.3096 12.0468C26.5297 12.4002 26.6398 12.8057 26.6398 13.2634V14.6364C26.6398 15.0941 26.5297 15.5025 26.3096 15.8617C26.0894 16.2209 25.7795 16.5019 25.3798 16.7046C24.9858 16.9016 24.5339 17.0001 24.0241 17.0001H22.0949ZM23.9372 16.0008C24.4412 16.0008 24.8236 15.8878 25.0843 15.6618C25.345 15.4301 25.4754 15.0912 25.4754 14.6451V13.246C25.4754 12.8115 25.345 12.4813 25.0843 12.2554C24.8236 12.0294 24.4412 11.9164 23.9372 11.9164H22.6772V16.0008H23.9372ZM27.6863 11.7079C27.6863 11.4356 27.7877 11.2241 27.9905 11.0735C28.1933 10.9171 28.48 10.8389 28.8508 10.8389V16.2093C28.8508 16.4874 28.7494 16.7017 28.5467 16.8524C28.3439 17.003 28.0571 17.0783 27.6863 17.0783V11.7079ZM32.5442 17.0783C32.0286 17.0783 31.568 16.9798 31.1625 16.7829C30.7627 16.5859 30.4499 16.3107 30.224 15.9573C29.998 15.6039 29.885 15.2013 29.885 14.7494V13.1504C29.885 12.6985 29.9951 12.2988 30.2153 11.9512C30.4412 11.5978 30.7512 11.3255 31.1451 11.1344C31.539 10.9374 31.9909 10.8389 32.5007 10.8389C33.0106 10.8389 33.4624 10.9171 33.8564 11.0735C34.2561 11.2241 34.5661 11.4356 34.7862 11.7079C35.0064 11.9802 35.1164 12.293 35.1164 12.6464C35.1164 12.8608 35.044 13.0288 34.8992 13.1504C34.7601 13.2721 34.5719 13.3329 34.3343 13.3329C34.2185 13.3329 34.091 13.3155 33.952 13.2808C33.9636 13.1417 33.9693 13.0056 33.9693 12.8723C33.9693 12.5653 33.8332 12.3162 33.5609 12.125C33.2886 11.9338 32.9352 11.8382 32.5007 11.8382C32.072 11.8382 31.7215 11.9599 31.4492 12.2032C31.1828 12.4465 31.0495 12.7623 31.0495 13.1504V14.7494C31.0495 15.1375 31.1885 15.4562 31.4666 15.7053C31.7447 15.9544 32.1039 16.079 32.5442 16.079C32.9729 16.079 33.3205 15.9805 33.587 15.7835C33.8593 15.5807 33.9954 15.32 33.9954 15.0014V14.732H33.2481C33.0279 14.732 32.8483 14.648 32.7093 14.48C32.5703 14.3062 32.5007 14.0832 32.5007 13.8109H34.6124C34.7746 13.8109 34.905 13.8601 35.0035 13.9586C35.1019 14.0571 35.1512 14.1874 35.1512 14.3497V15.0275C35.1512 15.4272 35.0411 15.7835 34.821 16.0963C34.6008 16.4034 34.2909 16.6438 33.8911 16.8176C33.4972 16.9914 33.0482 17.0783 32.5442 17.0783ZM36.1812 11.7079C36.1812 11.4356 36.2825 11.2241 36.4853 11.0735C36.6881 10.9171 36.9748 10.8389 37.3456 10.8389V16.2093C37.3456 16.4874 37.2442 16.7017 37.0415 16.8524C36.8387 17.003 36.5519 17.0783 36.1812 17.0783V11.7079ZM40.3612 11.9251H38.2669C38.2669 11.2531 38.571 10.9171 39.1793 10.9171H43.6199C43.6199 11.5891 43.3129 11.9251 42.6988 11.9251H41.5256V16.218C41.5256 16.4961 41.4272 16.7104 41.2302 16.8611C41.0332 17.0059 40.7435 17.0783 40.3612 17.0783V11.9251ZM43.999 17.0783C43.7499 17.0493 43.5529 16.9624 43.408 16.8176C43.269 16.6728 43.1995 16.4903 43.1995 16.2701C43.1995 16.1021 43.24 15.9283 43.3211 15.7487L45.3112 11.2213C45.4212 10.9663 45.6124 10.8389 45.8847 10.8389C46.1512 10.8389 46.3395 10.9663 46.4495 11.2213L48.4396 15.7487C48.5207 15.9399 48.5612 16.1137 48.5612 16.2701C48.5612 16.4903 48.4888 16.6728 48.344 16.8176C48.2049 16.9624 48.008 17.0493 47.753 17.0783L47.0231 15.4272H44.7376L43.999 17.0783ZM46.6668 14.4365L45.7109 12.0555L45.6066 12.0989L45.8152 12.6377L45.0852 14.4365H46.6668ZM50.2478 11.9251H48.1535C48.1535 11.2531 48.4576 10.9171 49.0659 10.9171H53.5065C53.5065 11.5891 53.1995 11.9251 52.5854 11.9251H51.4122V16.218C51.4122 16.4961 51.3137 16.7104 51.1168 16.8611C50.9198 17.0059 50.6301 17.0783 50.2478 17.0783V11.9251ZM55.8572 11.9251H53.7629C53.7629 11.2531 54.0671 10.9171 54.6754 10.9171H59.116C59.116 11.5891 58.8089 11.9251 58.1948 11.9251H57.0217V16.218C57.0217 16.4961 56.9232 16.7104 56.7262 16.8611C56.5292 17.0059 56.2396 17.0783 55.8572 17.0783V11.9251ZM62.2401 17.0783C61.962 17.0783 61.7737 16.9509 61.6752 16.696L59.4593 10.9519C59.5172 10.9229 59.5954 10.8968 59.6939 10.8736C59.7924 10.8505 59.8793 10.8389 59.9546 10.8389C60.4123 10.8389 60.7078 11.0243 60.841 11.395L62.1793 15.1404L61.9707 15.6966L62.0663 15.7314L63.6305 11.395C63.7695 11.0243 64.065 10.8389 64.5169 10.8389C64.5922 10.8389 64.6791 10.8505 64.7776 10.8736C64.8761 10.8968 64.9572 10.9229 65.0209 10.9519L62.8049 16.696C62.7586 16.8176 62.6862 16.9132 62.5877 16.9827C62.495 17.0464 62.3791 17.0783 62.2401 17.0783ZM65.3845 17.0783C65.1354 17.0493 64.9384 16.9624 64.7936 16.8176C64.6546 16.6728 64.585 16.4903 64.585 16.2701C64.585 16.1021 64.6256 15.9283 64.7067 15.7487L66.6967 11.2213C66.8068 10.9663 66.998 10.8389 67.2702 10.8389C67.5367 10.8389 67.725 10.9663 67.8351 11.2213L69.8251 15.7487C69.9062 15.9399 69.9468 16.1137 69.9468 16.2701C69.9468 16.4903 69.8743 16.6728 69.7295 16.8176C69.5905 16.9624 69.3935 17.0493 69.1386 17.0783L68.4086 15.4272H66.1232L65.3845 17.0783ZM68.0523 14.4365L67.0964 12.0555L66.9922 12.0989L67.2007 12.6377L66.4708 14.4365H68.0523Z" fill="white"/>
<path d="M23.5216 24.068C23.0686 24.068 22.6735 24.0126 22.3363 23.9018C21.999 23.7911 21.7398 23.6351 21.5586 23.4337C21.3824 23.2274 21.2944 22.9883 21.2944 22.7165C21.2944 22.3038 21.5737 22.0974 22.1324 22.0974C22.1525 22.4799 22.2809 22.7693 22.5175 22.9656C22.7591 23.1619 23.0963 23.2601 23.5292 23.2601C23.8865 23.2601 24.1634 23.1997 24.3597 23.0789C24.556 22.9531 24.6541 22.7794 24.6541 22.5579C24.6541 22.412 24.6164 22.2937 24.5409 22.2031C24.4654 22.1075 24.337 22.0244 24.1558 21.9539C23.9746 21.8784 23.7104 21.8029 23.3631 21.7274C22.8698 21.6117 22.4797 21.4833 22.1928 21.3424C21.9109 21.2015 21.7071 21.0328 21.5813 20.8365C21.4554 20.6352 21.3925 20.3861 21.3925 20.0891C21.3925 19.8022 21.4756 19.5505 21.6417 19.3341C21.8128 19.1177 22.0519 18.949 22.3589 18.8282C22.671 18.7074 23.0283 18.647 23.431 18.647C23.8186 18.647 24.1634 18.6999 24.4654 18.8056C24.7724 18.9063 25.0115 19.0497 25.1826 19.2359C25.3588 19.4222 25.4469 19.6361 25.4469 19.8777C25.4469 20.2502 25.1776 20.4439 24.639 20.459C24.6088 20.1117 24.4981 19.8576 24.3068 19.6965C24.1155 19.5354 23.8236 19.4549 23.431 19.4549C23.0938 19.4549 22.8346 19.5103 22.6534 19.621C22.4722 19.7317 22.3816 19.8878 22.3816 20.0891C22.3816 20.23 22.4168 20.3483 22.4873 20.4439C22.5577 20.5345 22.676 20.6151 22.8421 20.6855C23.0082 20.751 23.2448 20.8189 23.5518 20.8894C24.0702 21.0052 24.4805 21.136 24.7825 21.282C25.0845 21.4229 25.3034 21.5966 25.4393 21.8029C25.5752 22.0043 25.6432 22.2534 25.6432 22.5504C25.6432 22.8574 25.5551 23.1267 25.3789 23.3582C25.2078 23.5847 24.9611 23.7609 24.639 23.8867C24.3219 24.0076 23.9494 24.068 23.5216 24.068ZM27.9485 24.068C27.6213 24.068 27.3244 24.0101 27.0576 23.8943C26.7959 23.7735 26.5895 23.6074 26.4385 23.396C26.2875 23.1846 26.212 22.9455 26.212 22.6787V21.6142C26.212 21.3424 26.285 21.0958 26.4309 20.8743C26.5819 20.6528 26.7883 20.4792 27.05 20.3533C27.3118 20.2225 27.6113 20.157 27.9485 20.157C28.2857 20.157 28.5852 20.2225 28.8469 20.3533C29.1137 20.4792 29.3201 20.6528 29.466 20.8743C29.617 21.0958 29.6925 21.3424 29.6925 21.6142V22.6787C29.6925 22.9455 29.6145 23.1846 29.4585 23.396C29.3075 23.6074 29.0986 23.7735 28.8318 23.8943C28.5701 24.0101 28.2757 24.068 27.9485 24.068ZM27.9485 23.2601C28.2002 23.2601 28.3965 23.2022 28.5374 23.0864C28.6834 22.9707 28.7563 22.8146 28.7563 22.6183V21.6595C28.7563 21.4531 28.6834 21.287 28.5374 21.1612C28.3965 21.0303 28.2002 20.9649 27.9485 20.9649C27.7019 20.9649 27.5056 21.0303 27.3596 21.1612C27.2136 21.287 27.1406 21.4531 27.1406 21.6595V22.6183C27.1406 22.8146 27.2136 22.9707 27.3596 23.0864C27.5056 23.2022 27.7019 23.2601 27.9485 23.2601ZM31.6639 24.068C31.2462 24.068 30.9291 23.9497 30.7126 23.7131C30.5012 23.4715 30.3955 23.167 30.3955 22.7995V19.2208C30.3955 19.0145 30.471 18.8685 30.622 18.7829C30.7781 18.6923 31.0171 18.647 31.3393 18.647V22.7618C31.3393 22.9329 31.377 23.0588 31.4525 23.1393C31.528 23.2148 31.6488 23.2525 31.8149 23.2525C32.0012 23.2525 32.1874 23.2047 32.3736 23.1091C32.424 23.1544 32.4617 23.2123 32.4869 23.2827C32.5171 23.3482 32.5322 23.4161 32.5322 23.4866C32.5322 23.6376 32.4567 23.7735 32.3057 23.8943C32.1547 24.0101 31.9408 24.068 31.6639 24.068ZM36.5279 23.3356C36.5279 23.5722 36.4524 23.7534 36.3014 23.8792C36.1554 24.005 35.9314 24.068 35.6294 24.068V23.6149C35.6949 23.5394 35.7553 23.4564 35.8106 23.3658L35.7653 23.3356C35.4432 23.8238 35.0103 24.068 34.4667 24.068C34.21 24.068 33.9785 24.0101 33.7721 23.8943C33.5708 23.7735 33.4097 23.6074 33.2889 23.396C33.1732 23.1846 33.1153 22.9455 33.1153 22.6787V20.7308C33.1153 20.5245 33.1908 20.3785 33.3418 20.2929C33.4978 20.2023 33.7344 20.157 34.0515 20.157V22.6108C34.0515 22.8071 34.1119 22.9631 34.2327 23.0789C34.3535 23.1947 34.5271 23.2525 34.7536 23.2525C35.0053 23.2525 35.2066 23.1745 35.3576 23.0185C35.5137 22.8574 35.5917 22.6586 35.5917 22.422V20.7308C35.5917 20.5245 35.6672 20.3785 35.8182 20.2929C35.9692 20.2023 36.2058 20.157 36.5279 20.157V23.3356ZM39.0722 24.068C38.6645 24.068 38.3625 23.9497 38.1662 23.7131C37.9699 23.4765 37.8717 23.172 37.8717 22.7995V20.9271H37.0941C37.0941 20.6906 37.1394 20.5144 37.23 20.3986C37.3206 20.2829 37.4414 20.225 37.5924 20.225H37.8868V19.5983C37.8868 19.392 37.9623 19.246 38.1133 19.1604C38.2643 19.0698 38.4933 19.0245 38.8004 19.0245V20.225H39.8045C39.8045 20.4767 39.7567 20.6579 39.6611 20.7686C39.5654 20.8743 39.4119 20.9271 39.2005 20.9271H38.8155V22.7618C38.8155 22.938 38.8482 23.0638 38.9136 23.1393C38.9841 23.2148 39.1024 23.2525 39.2685 23.2525C39.4446 23.2525 39.6208 23.2047 39.797 23.1091C39.8473 23.1544 39.8876 23.2123 39.9178 23.2827C39.948 23.3482 39.9631 23.4161 39.9631 23.4866C39.9631 23.6376 39.8851 23.7735 39.729 23.8943C39.573 24.0101 39.354 24.068 39.0722 24.068ZM41.3009 19.8022C41.1197 19.8022 40.9687 19.7493 40.8479 19.6436C40.7321 19.5329 40.6743 19.392 40.6743 19.2208C40.6743 19.0547 40.7321 18.9188 40.8479 18.8131C40.9687 18.7024 41.1197 18.647 41.3009 18.647C41.4821 18.647 41.6306 18.7024 41.7464 18.8131C41.8672 18.9188 41.9276 19.0547 41.9276 19.2208C41.9276 19.392 41.8672 19.5329 41.7464 19.6436C41.6306 19.7493 41.4821 19.8022 41.3009 19.8022ZM40.8253 20.7308C40.8253 20.5245 40.9033 20.3785 41.0593 20.2929C41.2153 20.2023 41.4519 20.157 41.769 20.157V23.4941C41.769 23.6955 41.691 23.8414 41.535 23.932C41.3789 24.0227 41.1424 24.068 40.8253 24.068V20.7308ZM44.2061 24.068C43.8789 24.068 43.5819 24.0101 43.3152 23.8943C43.0534 23.7735 42.8471 23.6074 42.6961 23.396C42.5451 23.1846 42.4696 22.9455 42.4696 22.6787V21.6142C42.4696 21.3424 42.5425 21.0958 42.6885 20.8743C42.8395 20.6528 43.0459 20.4792 43.3076 20.3533C43.5693 20.2225 43.8688 20.157 44.2061 20.157C44.5433 20.157 44.8428 20.2225 45.1045 20.3533C45.3713 20.4792 45.5776 20.6528 45.7236 20.8743C45.8746 21.0958 45.9501 21.3424 45.9501 21.6142V22.6787C45.9501 22.9455 45.8721 23.1846 45.7161 23.396C45.5651 23.6074 45.3562 23.7735 45.0894 23.8943C44.8277 24.0101 44.5332 24.068 44.2061 24.068ZM44.2061 23.2601C44.4577 23.2601 44.654 23.2022 44.795 23.0864C44.9409 22.9707 45.0139 22.8146 45.0139 22.6183V21.6595C45.0139 21.4531 44.9409 21.287 44.795 21.1612C44.654 21.0303 44.4577 20.9649 44.2061 20.9649C43.9594 20.9649 43.7631 21.0303 43.6172 21.1612C43.4712 21.287 43.3982 21.4531 43.3982 21.6595V22.6183C43.3982 22.8146 43.4712 22.9707 43.6172 23.0864C43.7631 23.2022 43.9594 23.2601 44.2061 23.2601ZM46.5432 20.8818C46.5432 20.6503 46.6162 20.4716 46.7622 20.3458C46.9132 20.22 47.1397 20.157 47.4417 20.157V20.61C47.3813 20.6805 47.3209 20.761 47.2605 20.8516L47.3058 20.8818C47.4568 20.6553 47.6505 20.4792 47.8871 20.3533C48.1237 20.2225 48.3854 20.157 48.6723 20.157C48.929 20.157 49.1555 20.2149 49.3518 20.3307C49.5481 20.4465 49.6991 20.605 49.8048 20.8063C49.9155 21.0077 49.9709 21.2342 49.9709 21.4858V23.4941C49.9709 23.6955 49.8929 23.8414 49.7369 23.932C49.5808 24.0227 49.3443 24.068 49.0272 24.068V21.6217C49.0272 21.4305 48.9693 21.2744 48.8535 21.1536C48.7428 21.0328 48.5792 20.9724 48.3628 20.9724C48.1061 20.9724 47.8947 21.053 47.7286 21.214C47.5625 21.3701 47.4794 21.5664 47.4794 21.8029V23.4941C47.4794 23.6955 47.4039 23.8414 47.2529 23.932C47.1019 24.0227 46.8653 24.068 46.5432 24.068V20.8818ZM52.3448 24.068C51.8616 24.068 51.4716 23.9824 51.1746 23.8112C50.8827 23.6351 50.7342 23.401 50.7291 23.1091C50.7291 22.9833 50.7795 22.8776 50.8801 22.792C50.9858 22.7064 51.1519 22.6611 51.3784 22.6561C51.4237 22.8776 51.5294 23.0487 51.6955 23.1695C51.8616 23.2853 52.063 23.3431 52.2995 23.3431C52.5562 23.3431 52.7576 23.3104 52.9035 23.245C53.0495 23.1796 53.1225 23.0814 53.1225 22.9505C53.1225 22.8297 53.0621 22.7291 52.9413 22.6485C52.8255 22.568 52.594 22.4875 52.2467 22.4069C51.8692 22.3163 51.5747 22.2257 51.3633 22.1351C51.157 22.0445 51.0035 21.9288 50.9028 21.7878C50.8021 21.6469 50.7518 21.4607 50.7518 21.2291C50.7518 20.907 50.8877 20.6478 51.1595 20.4515C51.4313 20.2552 51.8038 20.157 52.2769 20.157C52.7349 20.157 53.1149 20.2401 53.4169 20.4062C53.7189 20.5673 53.8699 20.7837 53.8699 21.0555C53.8699 21.1914 53.8196 21.2921 53.7189 21.3575C53.6183 21.4229 53.4522 21.4582 53.2206 21.4632C53.1703 21.2619 53.0747 21.1109 52.9337 21.0102C52.7928 20.9095 52.594 20.8592 52.3373 20.8592C52.146 20.8592 51.9799 20.8919 51.839 20.9573C51.7031 21.0228 51.6351 21.1083 51.6351 21.214C51.6351 21.3248 51.693 21.4103 51.8088 21.4707C51.9246 21.5311 52.1259 21.5915 52.4128 21.6519C52.9765 21.7727 53.3842 21.9338 53.6359 22.1351C53.8926 22.3365 54.0209 22.6108 54.0209 22.9581C54.0209 23.2953 53.8699 23.5646 53.5679 23.7659C53.271 23.9673 52.8633 24.068 52.3448 24.068Z" fill="white"/>
<defs>
<radialGradient id="paint0_radial_55_7" cx="0" cy="0" r="1" gradientUnits="userSpaceOnUse" gradientTransform="translate(12.065 16.9999) rotate(90) scale(7.445 7.065)">
<stop offset="0.342927" stop-color="#FF0000"/>
<stop offset="1" stop-color="#FF530E"/>
</radialGradient>
</defs>
</svg>
