<svg width="93" height="34" viewBox="0 0 93 34" fill="none" xmlns="http://www.w3.org/2000/svg">
<rect width="93" height="34" fill="black"/>
<path d="M13.7634 9.57074L13.8096 9.53493H13.7512H10.7329V9.52983L10.7208 9.539L4.98791 13.8894L4.98 13.8954V13.9054V21.1452V21.1543L4.98694 21.1603L8.81452 24.4601L8.82762 24.4714L8.84069 24.46L15.5347 18.6485L15.5416 18.6425V18.6334V16.0724V16.063L15.5344 16.057L14.0337 14.8093L14.0205 14.7984L14.0077 14.8097L12.3553 16.2708L12.3378 16.2863L12.3557 16.3012L13.1579 16.9683V18.0004L8.7434 21.8081L7.1952 20.4467L7.22881 14.6376L13.7634 9.57074ZM13.3633 24.4649V24.4699L13.3753 24.4609L19.142 20.1433L19.15 20.1373V20.1273V12.8383V12.829L19.1429 12.823L15.3153 9.58891L15.3024 9.57794L15.2894 9.58897L8.57853 15.3184L8.57152 15.3244V15.3336V17.9275V17.9367L8.57847 17.9426L10.0286 19.1903L10.0416 19.2015L10.0546 19.1903L11.7239 17.7621L11.7413 17.7472L11.7242 17.732L10.9384 17.032V16.0324L15.3867 12.2407L16.9011 13.537V19.3132L10.3665 24.4292L10.3209 24.4649H10.3788H13.3633Z" fill="url(#paint0_radial_52_2)" stroke="black" stroke-width="0.04"/>
<path d="M71.6726 6.0034C71.6726 6.0034 70.9886 6.17171 70.6843 6.8391C70.5232 7.1584 70.4627 7.53033 70.4397 7.8541L69.9228 7.92907L69.7706 8.26276L70.4152 8.28365C70.4137 8.38942 70.4312 8.45348 70.4312 8.45348L70.6514 8.51705C70.6514 8.51705 70.7074 8.46243 70.8005 8.3949L71.3119 8.70776L71.4641 8.37406L71.1463 8.04631C71.371 7.79256 71.6427 7.4698 71.7853 7.15696C72.071 6.49602 71.6726 6.0034 71.6726 6.0034ZM71.5125 6.90121C71.4745 6.98463 71.3449 7.02982 71.2163 7.00449C71.1062 6.9727 71.0431 6.87189 71.0722 6.77407C71.1102 6.69064 71.2398 6.64546 71.3684 6.67079C71.4785 6.70257 71.5416 6.80338 71.5125 6.90121Z" fill="#FF530E"/>
<path d="M49 17.5437C49 17.5437 52.6181 7.74564 56.3023 10.034C59.9866 12.3224 58.7144 16.4258 61.4404 18.4775C65.7718 21.7374 70.4445 8.66626 70.4445 8.66626" stroke="#FF4900" stroke-width="0.283404"/>
<path d="M22.0949 17C21.9327 17 21.7937 16.9508 21.6778 16.8523C21.5677 16.748 21.5127 16.6205 21.5127 16.4699V11.4471C21.5127 11.2965 21.5677 11.1719 21.6778 11.0734C21.7879 10.9691 21.9269 10.917 22.0949 10.917H24.0241C24.5397 10.917 24.9945 11.0155 25.3884 11.2125C25.7882 11.4094 26.0952 11.6875 26.3096 12.0467C26.5297 12.4001 26.6398 12.8056 26.6398 13.2633V14.6363C26.6398 15.094 26.5297 15.5024 26.3096 15.8616C26.0894 16.2208 25.7795 16.5018 25.3798 16.7045C24.9858 16.9015 24.5339 17 24.0241 17H22.0949ZM23.9372 16.0007C24.4412 16.0007 24.8236 15.8877 25.0843 15.6617C25.345 15.43 25.4754 15.0911 25.4754 14.645V13.2459C25.4754 12.8114 25.345 12.4812 25.0843 12.2553C24.8236 12.0293 24.4412 11.9163 23.9372 11.9163H22.6772V16.0007H23.9372ZM27.6863 11.7078C27.6863 11.4355 27.7877 11.224 27.9905 11.0734C28.1933 10.917 28.48 10.8388 28.8508 10.8388V16.2092C28.8508 16.4873 28.7494 16.7016 28.5467 16.8523C28.3439 17.0029 28.0571 17.0782 27.6863 17.0782V11.7078ZM32.5442 17.0782C32.0286 17.0782 31.568 16.9797 31.1625 16.7828C30.7627 16.5858 30.4499 16.3106 30.224 15.9572C29.998 15.6038 29.885 15.2012 29.885 14.7493V13.1503C29.885 12.6984 29.9951 12.2987 30.2153 11.9511C30.4412 11.5977 30.7512 11.3254 31.1451 11.1343C31.539 10.9373 31.9909 10.8388 32.5007 10.8388C33.0106 10.8388 33.4624 10.917 33.8564 11.0734C34.2561 11.224 34.5661 11.4355 34.7862 11.7078C35.0064 11.9801 35.1164 12.2929 35.1164 12.6463C35.1164 12.8607 35.044 13.0287 34.8992 13.1503C34.7601 13.272 34.5719 13.3328 34.3343 13.3328C34.2185 13.3328 34.091 13.3154 33.952 13.2807C33.9636 13.1416 33.9693 13.0055 33.9693 12.8722C33.9693 12.5652 33.8332 12.3161 33.5609 12.1249C33.2886 11.9337 32.9352 11.8381 32.5007 11.8381C32.072 11.8381 31.7215 11.9598 31.4492 12.2031C31.1828 12.4464 31.0495 12.7622 31.0495 13.1503V14.7493C31.0495 15.1374 31.1885 15.4561 31.4666 15.7052C31.7447 15.9543 32.1039 16.0789 32.5442 16.0789C32.9729 16.0789 33.3205 15.9804 33.587 15.7834C33.8593 15.5806 33.9954 15.3199 33.9954 15.0013V14.7319H33.2481C33.0279 14.7319 32.8483 14.6479 32.7093 14.4799C32.5703 14.3061 32.5007 14.0831 32.5007 13.8108H34.6124C34.7746 13.8108 34.905 13.86 35.0035 13.9585C35.1019 14.057 35.1512 14.1873 35.1512 14.3496V15.0274C35.1512 15.4271 35.0411 15.7834 34.821 16.0962C34.6008 16.4033 34.2909 16.6437 33.8911 16.8175C33.4972 16.9913 33.0482 17.0782 32.5442 17.0782ZM36.1812 11.7078C36.1812 11.4355 36.2825 11.224 36.4853 11.0734C36.6881 10.917 36.9748 10.8388 37.3456 10.8388V16.2092C37.3456 16.4873 37.2442 16.7016 37.0415 16.8523C36.8387 17.0029 36.5519 17.0782 36.1812 17.0782V11.7078ZM40.3612 11.925H38.2669C38.2669 11.253 38.571 10.917 39.1793 10.917H43.6199C43.6199 11.589 43.3129 11.925 42.6988 11.925H41.5256V16.2179C41.5256 16.496 41.4272 16.7103 41.2302 16.861C41.0332 17.0058 40.7435 17.0782 40.3612 17.0782V11.925ZM43.999 17.0782C43.7499 17.0492 43.5529 16.9623 43.408 16.8175C43.269 16.6727 43.1995 16.4902 43.1995 16.27C43.1995 16.102 43.24 15.9282 43.3211 15.7486L45.3112 11.2212C45.4212 10.9662 45.6124 10.8388 45.8847 10.8388C46.1512 10.8388 46.3395 10.9662 46.4495 11.2212L48.4396 15.7486C48.5207 15.9398 48.5612 16.1136 48.5612 16.27C48.5612 16.4902 48.4888 16.6727 48.344 16.8175C48.2049 16.9623 48.008 17.0492 47.753 17.0782L47.0231 15.4271H44.7376L43.999 17.0782ZM46.6668 14.4364L45.7109 12.0554L45.6066 12.0988L45.8152 12.6376L45.0852 14.4364H46.6668ZM50.2478 11.925H48.1535C48.1535 11.253 48.4576 10.917 49.0659 10.917H53.5065C53.5065 11.589 53.1995 11.925 52.5854 11.925H51.4122V16.2179C51.4122 16.496 51.3137 16.7103 51.1168 16.861C50.9198 17.0058 50.6301 17.0782 50.2478 17.0782V11.925ZM55.8572 11.925H53.7629C53.7629 11.253 54.0671 10.917 54.6754 10.917H59.116C59.116 11.589 58.8089 11.925 58.1948 11.925H57.0217V16.2179C57.0217 16.496 56.9232 16.7103 56.7262 16.861C56.5292 17.0058 56.2396 17.0782 55.8572 17.0782V11.925ZM62.2401 17.0782C61.962 17.0782 61.7737 16.9508 61.6752 16.6959L59.4593 10.9518C59.5172 10.9228 59.5954 10.8967 59.6939 10.8735C59.7924 10.8504 59.8793 10.8388 59.9546 10.8388C60.4123 10.8388 60.7078 11.0242 60.841 11.3949L62.1793 15.1403L61.9707 15.6965L62.0663 15.7313L63.6305 11.3949C63.7695 11.0242 64.065 10.8388 64.5169 10.8388C64.5922 10.8388 64.6791 10.8504 64.7776 10.8735C64.8761 10.8967 64.9572 10.9228 65.0209 10.9518L62.8049 16.6959C62.7586 16.8175 62.6862 16.9131 62.5877 16.9826C62.495 17.0463 62.3791 17.0782 62.2401 17.0782ZM65.3845 17.0782C65.1354 17.0492 64.9384 16.9623 64.7936 16.8175C64.6546 16.6727 64.585 16.4902 64.585 16.27C64.585 16.102 64.6256 15.9282 64.7067 15.7486L66.6967 11.2212C66.8068 10.9662 66.998 10.8388 67.2702 10.8388C67.5367 10.8388 67.725 10.9662 67.8351 11.2212L69.8251 15.7486C69.9062 15.9398 69.9468 16.1136 69.9468 16.27C69.9468 16.4902 69.8743 16.6727 69.7295 16.8175C69.5905 16.9623 69.3935 17.0492 69.1386 17.0782L68.4086 15.4271H66.1232L65.3845 17.0782ZM68.0523 14.4364L67.0964 12.0554L66.9922 12.0988L67.2007 12.6376L66.4708 14.4364H68.0523Z" fill="white"/>
<path d="M23.5217 24.068C23.0687 24.068 22.6736 24.0126 22.3364 23.9018C21.9991 23.7911 21.7399 23.6351 21.5587 23.4337C21.3825 23.2274 21.2945 22.9883 21.2945 22.7165C21.2945 22.3038 21.5738 22.0974 22.1325 22.0974C22.1526 22.4799 22.281 22.7693 22.5176 22.9656C22.7592 23.1619 23.0964 23.2601 23.5293 23.2601C23.8866 23.2601 24.1635 23.1997 24.3598 23.0789C24.5561 22.9531 24.6542 22.7794 24.6542 22.5579C24.6542 22.412 24.6165 22.2937 24.541 22.2031C24.4655 22.1075 24.3371 22.0244 24.1559 21.9539C23.9747 21.8784 23.7105 21.8029 23.3632 21.7274C22.8699 21.6117 22.4798 21.4833 22.1929 21.3424C21.911 21.2015 21.7072 21.0328 21.5814 20.8365C21.4555 20.6352 21.3926 20.3861 21.3926 20.0891C21.3926 19.8022 21.4757 19.5505 21.6418 19.3341C21.8129 19.1177 22.052 18.949 22.359 18.8282C22.6711 18.7074 23.0284 18.647 23.4311 18.647C23.8187 18.647 24.1635 18.6999 24.4655 18.8056C24.7725 18.9063 25.0116 19.0497 25.1827 19.2359C25.3589 19.4222 25.447 19.6361 25.447 19.8777C25.447 20.2502 25.1777 20.4439 24.6391 20.459C24.6089 20.1117 24.4982 19.8576 24.3069 19.6965C24.1156 19.5354 23.8237 19.4549 23.4311 19.4549C23.0939 19.4549 22.8347 19.5103 22.6535 19.621C22.4723 19.7317 22.3817 19.8878 22.3817 20.0891C22.3817 20.23 22.4169 20.3483 22.4874 20.4439C22.5578 20.5345 22.6761 20.6151 22.8422 20.6855C23.0083 20.751 23.2449 20.8189 23.5519 20.8894C24.0703 21.0052 24.4806 21.136 24.7826 21.282C25.0846 21.4229 25.3035 21.5966 25.4394 21.8029C25.5753 22.0043 25.6433 22.2534 25.6433 22.5504C25.6433 22.8574 25.5552 23.1267 25.379 23.3582C25.2079 23.5847 24.9612 23.7609 24.6391 23.8867C24.322 24.0076 23.9495 24.068 23.5217 24.068ZM27.9486 24.068C27.6214 24.068 27.3245 24.0101 27.0577 23.8943C26.796 23.7735 26.5896 23.6074 26.4386 23.396C26.2876 23.1846 26.2121 22.9455 26.2121 22.6787V21.6142C26.2121 21.3424 26.2851 21.0958 26.431 20.8743C26.582 20.6528 26.7884 20.4792 27.0501 20.3533C27.3119 20.2225 27.6114 20.157 27.9486 20.157C28.2858 20.157 28.5853 20.2225 28.847 20.3533C29.1138 20.4792 29.3202 20.6528 29.4661 20.8743C29.6171 21.0958 29.6926 21.3424 29.6926 21.6142V22.6787C29.6926 22.9455 29.6146 23.1846 29.4586 23.396C29.3076 23.6074 29.0987 23.7735 28.8319 23.8943C28.5702 24.0101 28.2758 24.068 27.9486 24.068ZM27.9486 23.2601C28.2003 23.2601 28.3966 23.2022 28.5375 23.0864C28.6835 22.9707 28.7564 22.8146 28.7564 22.6183V21.6595C28.7564 21.4531 28.6835 21.287 28.5375 21.1612C28.3966 21.0303 28.2003 20.9649 27.9486 20.9649C27.702 20.9649 27.5057 21.0303 27.3597 21.1612C27.2137 21.287 27.1407 21.4531 27.1407 21.6595V22.6183C27.1407 22.8146 27.2137 22.9707 27.3597 23.0864C27.5057 23.2022 27.702 23.2601 27.9486 23.2601ZM31.664 24.068C31.2463 24.068 30.9292 23.9497 30.7127 23.7131C30.5013 23.4715 30.3956 23.167 30.3956 22.7995V19.2208C30.3956 19.0145 30.4711 18.8685 30.6221 18.7829C30.7782 18.6923 31.0172 18.647 31.3394 18.647V22.7618C31.3394 22.9329 31.3771 23.0588 31.4526 23.1393C31.5281 23.2148 31.6489 23.2525 31.815 23.2525C32.0013 23.2525 32.1875 23.2047 32.3737 23.1091C32.4241 23.1544 32.4618 23.2123 32.487 23.2827C32.5172 23.3482 32.5323 23.4161 32.5323 23.4866C32.5323 23.6376 32.4568 23.7735 32.3058 23.8943C32.1548 24.0101 31.9409 24.068 31.664 24.068ZM36.528 23.3356C36.528 23.5722 36.4525 23.7534 36.3015 23.8792C36.1555 24.005 35.9315 24.068 35.6295 24.068V23.6149C35.695 23.5394 35.7554 23.4564 35.8107 23.3658L35.7654 23.3356C35.4433 23.8238 35.0104 24.068 34.4668 24.068C34.2101 24.068 33.9786 24.0101 33.7722 23.8943C33.5709 23.7735 33.4098 23.6074 33.289 23.396C33.1733 23.1846 33.1154 22.9455 33.1154 22.6787V20.7308C33.1154 20.5245 33.1909 20.3785 33.3419 20.2929C33.4979 20.2023 33.7345 20.157 34.0516 20.157V22.6108C34.0516 22.8071 34.112 22.9631 34.2328 23.0789C34.3536 23.1947 34.5272 23.2525 34.7537 23.2525C35.0054 23.2525 35.2067 23.1745 35.3577 23.0185C35.5138 22.8574 35.5918 22.6586 35.5918 22.422V20.7308C35.5918 20.5245 35.6673 20.3785 35.8183 20.2929C35.9693 20.2023 36.2059 20.157 36.528 20.157V23.3356ZM39.0723 24.068C38.6646 24.068 38.3626 23.9497 38.1663 23.7131C37.97 23.4765 37.8718 23.172 37.8718 22.7995V20.9271H37.0942C37.0942 20.6906 37.1395 20.5144 37.2301 20.3986C37.3207 20.2829 37.4415 20.225 37.5925 20.225H37.8869V19.5983C37.8869 19.392 37.9624 19.246 38.1134 19.1604C38.2644 19.0698 38.4934 19.0245 38.8005 19.0245V20.225H39.8046C39.8046 20.4767 39.7568 20.6579 39.6612 20.7686C39.5655 20.8743 39.412 20.9271 39.2006 20.9271H38.8156V22.7618C38.8156 22.938 38.8483 23.0638 38.9137 23.1393C38.9842 23.2148 39.1025 23.2525 39.2686 23.2525C39.4447 23.2525 39.6209 23.2047 39.7971 23.1091C39.8474 23.1544 39.8877 23.2123 39.9179 23.2827C39.9481 23.3482 39.9632 23.4161 39.9632 23.4866C39.9632 23.6376 39.8852 23.7735 39.7291 23.8943C39.5731 24.0101 39.3541 24.068 39.0723 24.068ZM41.301 19.8022C41.1198 19.8022 40.9688 19.7493 40.848 19.6436C40.7322 19.5329 40.6744 19.392 40.6744 19.2208C40.6744 19.0547 40.7322 18.9188 40.848 18.8131C40.9688 18.7024 41.1198 18.647 41.301 18.647C41.4822 18.647 41.6307 18.7024 41.7465 18.8131C41.8673 18.9188 41.9277 19.0547 41.9277 19.2208C41.9277 19.392 41.8673 19.5329 41.7465 19.6436C41.6307 19.7493 41.4822 19.8022 41.301 19.8022ZM40.8254 20.7308C40.8254 20.5245 40.9034 20.3785 41.0594 20.2929C41.2154 20.2023 41.452 20.157 41.7691 20.157V23.4941C41.7691 23.6955 41.6911 23.8414 41.5351 23.932C41.379 24.0227 41.1425 24.068 40.8254 24.068V20.7308ZM44.2062 24.068C43.879 24.068 43.582 24.0101 43.3153 23.8943C43.0535 23.7735 42.8472 23.6074 42.6962 23.396C42.5452 23.1846 42.4697 22.9455 42.4697 22.6787V21.6142C42.4697 21.3424 42.5426 21.0958 42.6886 20.8743C42.8396 20.6528 43.046 20.4792 43.3077 20.3533C43.5694 20.2225 43.8689 20.157 44.2062 20.157C44.5434 20.157 44.8429 20.2225 45.1046 20.3533C45.3714 20.4792 45.5777 20.6528 45.7237 20.8743C45.8747 21.0958 45.9502 21.3424 45.9502 21.6142V22.6787C45.9502 22.9455 45.8722 23.1846 45.7162 23.396C45.5652 23.6074 45.3563 23.7735 45.0895 23.8943C44.8278 24.0101 44.5333 24.068 44.2062 24.068ZM44.2062 23.2601C44.4578 23.2601 44.6541 23.2022 44.7951 23.0864C44.941 22.9707 45.014 22.8146 45.014 22.6183V21.6595C45.014 21.4531 44.941 21.287 44.7951 21.1612C44.6541 21.0303 44.4578 20.9649 44.2062 20.9649C43.9595 20.9649 43.7632 21.0303 43.6173 21.1612C43.4713 21.287 43.3983 21.4531 43.3983 21.6595V22.6183C43.3983 22.8146 43.4713 22.9707 43.6173 23.0864C43.7632 23.2022 43.9595 23.2601 44.2062 23.2601ZM46.5433 20.8818C46.5433 20.6503 46.6163 20.4716 46.7623 20.3458C46.9133 20.22 47.1398 20.157 47.4418 20.157V20.61C47.3814 20.6805 47.321 20.761 47.2606 20.8516L47.3059 20.8818C47.4569 20.6553 47.6506 20.4792 47.8872 20.3533C48.1238 20.2225 48.3855 20.157 48.6724 20.157C48.9291 20.157 49.1556 20.2149 49.3519 20.3307C49.5482 20.4465 49.6992 20.605 49.8049 20.8063C49.9156 21.0077 49.971 21.2342 49.971 21.4858V23.4941C49.971 23.6955 49.893 23.8414 49.737 23.932C49.5809 24.0227 49.3444 24.068 49.0273 24.068V21.6217C49.0273 21.4305 48.9694 21.2744 48.8536 21.1536C48.7429 21.0328 48.5793 20.9724 48.3629 20.9724C48.1062 20.9724 47.8948 21.053 47.7287 21.214C47.5626 21.3701 47.4795 21.5664 47.4795 21.8029V23.4941C47.4795 23.6955 47.404 23.8414 47.253 23.932C47.102 24.0227 46.8654 24.068 46.5433 24.068V20.8818ZM52.3449 24.068C51.8617 24.068 51.4717 23.9824 51.1747 23.8112C50.8828 23.6351 50.7343 23.401 50.7292 23.1091C50.7292 22.9833 50.7796 22.8776 50.8802 22.792C50.9859 22.7064 51.152 22.6611 51.3785 22.6561C51.4238 22.8776 51.5295 23.0487 51.6956 23.1695C51.8617 23.2853 52.0631 23.3431 52.2996 23.3431C52.5563 23.3431 52.7577 23.3104 52.9036 23.245C53.0496 23.1796 53.1226 23.0814 53.1226 22.9505C53.1226 22.8297 53.0622 22.7291 52.9414 22.6485C52.8256 22.568 52.5941 22.4875 52.2468 22.4069C51.8693 22.3163 51.5748 22.2257 51.3634 22.1351C51.1571 22.0445 51.0036 21.9288 50.9029 21.7878C50.8022 21.6469 50.7519 21.4607 50.7519 21.2291C50.7519 20.907 50.8878 20.6478 51.1596 20.4515C51.4314 20.2552 51.8039 20.157 52.277 20.157C52.735 20.157 53.115 20.2401 53.417 20.4062C53.719 20.5673 53.87 20.7837 53.87 21.0555C53.87 21.1914 53.8197 21.2921 53.719 21.3575C53.6184 21.4229 53.4523 21.4582 53.2207 21.4632C53.1704 21.2619 53.0748 21.1109 52.9338 21.0102C52.7929 20.9095 52.5941 20.8592 52.3374 20.8592C52.1461 20.8592 51.98 20.8919 51.8391 20.9573C51.7032 21.0228 51.6352 21.1083 51.6352 21.214C51.6352 21.3248 51.6931 21.4103 51.8089 21.4707C51.9247 21.5311 52.126 21.5915 52.4129 21.6519C52.9766 21.7727 53.3843 21.9338 53.636 22.1351C53.8927 22.3365 54.021 22.6108 54.021 22.9581C54.021 23.2953 53.87 23.5646 53.568 23.7659C53.2711 23.9673 52.8634 24.068 52.3449 24.068Z" fill="white"/>
<defs>
<radialGradient id="paint0_radial_52_2" cx="0" cy="0" r="1" gradientUnits="userSpaceOnUse" gradientTransform="translate(12.065 16.9999) rotate(90) scale(7.445 7.065)">
<stop offset="0.342927" stop-color="#FF0000"/>
<stop offset="1" stop-color="#FF530E"/>
</radialGradient>
</defs>
</svg>